# xmcd
#
# Track frame offsets: 
#        150
#        14182
#        27215
#        39910
#        54170
#        66340
#        80462
#        93700
#        109027
#        123952
#        138527
#        151360
#        164512
#        178745
#        192862
#        211740
#        230260
#        248900
#        266277
#        279420
#        292650
#        304335
#        317020
#        331410
#
# Disc length: 4665 seconds
#
# Revision: 1
# Processed by: cddbd v1.5.2PL0 Copyright (c) Steve Scherf et al.
# Submitted via: ExactAudioCopy v0.99pb5
#
DISCID=4e123718
DTITLE=Jack Teagarden - Basin Street Blues
DYEAR=2002
DGENRE=Jazz
TTITLE0=Basin Street Blues (The Louisiana Rhythm Kings)
TTITLE1=Rose Of Washington Square (Red Nichols and His Five Pennies)
TTITLE2=Won't You Get Off It, Please? (Fats Waller and His Buddies)
TTITLE3=I'm Just Wild About Harry (Red Nichols and His Five Pennies)
TTITLE4=China Boy (Red Nichols and His Five Pennies)
TTITLE5=Basin Street Blues (The Charleston Chasers)
TTITLE6=Beale Street Blues (The Charleston Chasers)
TTITLE7=Dr Heckle And Mr Jibe (Benny Goodman and His Orchestra)
TTITLE8=Texas Tea Party (Benny Goodman and His Orchestra)
TTITLE9=Davenport Blues (Adrian Rollini and His Orchestra)
TTITLE10=Riverboat Shuffle (Adrian Rollini and His Orchestra)
TTITLE11=S'Wonderful (Frankie Trumbauer and His Orchestra)
TTITLE12=The Blues (The All Star Band)
TTITLE13=Blue Lou (The All Star Band)
TTITLE14=St James Infirmary (Jack Teagarden's Big Eight)
TTITLE15=The World Is Waiting For The Sunrise (Jack Teagarden's Big Ei
TTITLE15=ght)
TTITLE16=The Big Eight Blues (Jack Teagarden's Big Eight)
TTITLE17=Shine (Jack Teagarden's Big Eight)
TTITLE18=Casanova's Lament (The Capitol Jazzmen)
TTITLE19=Stars Fell On Alabama (Jack Teagarden's Chicagoans)
TTITLE20='Deed I Do (Jack Teagarden's Chicagoans)
TTITLE21=Chinatown, My Chinatown (Jack Teagarden and His Swinging Gates)
TTITLE22=Big 'T' Blues (Jack Teagarden and His Swinging Gates)
TTITLE23=Pitchin' A Bit Short (Jack Teagarden and His Swinging Gates)
EXTD=
EXTT0=
EXTT1=
EXTT2=
EXTT3=
EXTT4=
EXTT5=
EXTT6=
EXTT7=
EXTT8=
EXTT9=
EXTT10=
EXTT11=
EXTT12=
EXTT13=
EXTT14=
EXTT15=
EXTT16=
EXTT17=
EXTT18=
EXTT19=
EXTT20=
EXTT21=
EXTT22=
EXTT23=
PLAYORDER=
